<?xml version="1.0" encoding="UTF-8"?>
<svg width="1000" height="2600" xmlns="http://www.w3.org/2000/svg">
<text x="10" y="20" font-size="16" fill="black">Layout 1 (Dimensions in mm)</text>
<rect x="0" y="50" width="200" height="150" fill="#d9f9d9" stroke="black" stroke-width="2"/>
<text x="10" y="70" font-size="14" fill="black">Bathroom</text>
<text x="10" y="90" font-size="12" fill="#333">2000mm x 1500mm</text>
<rect x="200" y="50" width="300" height="200" fill="#d9f9d9" stroke="black" stroke-width="2"/>
<text x="210" y="70" font-size="14" fill="black">Bedroom 2</text>
<text x="210" y="90" font-size="12" fill="#333">3000mm x 2000mm</text>
<rect x="500" y="50" width="300" height="200" fill="#d9f9d9" stroke="black" stroke-width="2"/>
<text x="510" y="70" font-size="14" fill="black">Bedroom 1</text>
<text x="510" y="90" font-size="12" fill="#333">3000mm x 2000mm</text>
<rect x="0" y="250" width="250" height="200" fill="#d9f9d9" stroke="black" stroke-width="2"/>
<text x="10" y="270" font-size="14" fill="black">Kitchen</text>
<text x="10" y="290" font-size="12" fill="#333">2500mm x 2000mm</text>
<rect x="250" y="250" width="150" height="150" fill="#d9f9d9" stroke="black" stroke-width="2"/>
<text x="260" y="270" font-size="14" fill="black">Toilet</text>
<text x="260" y="290" font-size="12" fill="#333">1500mm x 1500mm</text>
<rect x="400" y="250" width="400" height="250" fill="#d9f9d9" stroke="black" stroke-width="2"/>
<text x="410" y="270" font-size="14" fill="black">Living Room</text>
<text x="410" y="290" font-size="12" fill="#333">4000mm x 2500mm</text>
<rect x="800" y="250" width="180" height="150" fill="#d9f9d9" stroke="black" stroke-width="2"/>
<text x="810" y="270" font-size="14" fill="black">Walk-in Closet</text>
<text x="810" y="290" font-size="12" fill="#333">1800mm x 1500mm</text>
<rect x="0" y="500" width="300" height="200" fill="#d9f9d9" stroke="black" stroke-width="2"/>
<text x="10" y="520" font-size="14" fill="black">Dining Room</text>
<text x="10" y="540" font-size="12" fill="#333">3000mm x 2000mm</text>
<rect x="300" y="500" width="250" height="180" fill="#d9f9d9" stroke="black" stroke-width="2"/>
<text x="310" y="520" font-size="14" fill="black">Study Room</text>
<text x="310" y="540" font-size="12" fill="#333">2500mm x 1800mm</text>
<rect x="550" y="500" width="280" height="200" fill="#d9f9d9" stroke="black" stroke-width="2"/>
<text x="560" y="520" font-size="14" fill="black">Guest Room</text>
<text x="560" y="540" font-size="12" fill="#333">2800mm x 2000mm</text>
<rect x="0" y="700" width="200" height="150" fill="#d9f9d9" stroke="black" stroke-width="2"/>
<text x="10" y="720" font-size="14" fill="black">Storage</text>
<text x="10" y="740" font-size="12" fill="#333">2000mm x 1500mm</text>
<text x="10" y="920" font-size="16" fill="black">Layout 2 (Dimensions in mm)</text>
<rect x="0" y="950" width="250" height="200" fill="#d9f9d9" stroke="black" stroke-width="2"/>
<text x="10" y="970" font-size="14" fill="black">Kitchen</text>
<text x="10" y="990" font-size="12" fill="#333">2500mm x 2000mm</text>
<rect x="250" y="950" width="280" height="200" fill="#d9f9d9" stroke="black" stroke-width="2"/>
<text x="260" y="970" font-size="14" fill="black">Guest Room</text>
<text x="260" y="990" font-size="12" fill="#333">2800mm x 2000mm</text>
<rect x="530" y="950" width="300" height="200" fill="#d9f9d9" stroke="black" stroke-width="2"/>
<text x="540" y="970" font-size="14" fill="black">Dining Room</text>
<text x="540" y="990" font-size="12" fill="#333">3000mm x 2000mm</text>
<rect x="830" y="950" width="150" height="150" fill="#d9f9d9" stroke="black" stroke-width="2"/>
<text x="840" y="970" font-size="14" fill="black">Toilet</text>
<text x="840" y="990" font-size="12" fill="#333">1500mm x 1500mm</text>
<rect x="0" y="1150" width="300" height="200" fill="#d9f9d9" stroke="black" stroke-width="2"/>
<text x="10" y="1170" font-size="14" fill="black">Bedroom 1</text>
<text x="10" y="1190" font-size="12" fill="#333">3000mm x 2000mm</text>
<rect x="300" y="1150" width="400" height="250" fill="#d9f9d9" stroke="black" stroke-width="2"/>
<text x="310" y="1170" font-size="14" fill="black">Living Room</text>
<text x="310" y="1190" font-size="12" fill="#333">4000mm x 2500mm</text>
<rect x="700" y="1150" width="200" height="150" fill="#d9f9d9" stroke="black" stroke-width="2"/>
<text x="710" y="1170" font-size="14" fill="black">Storage</text>
<text x="710" y="1190" font-size="12" fill="#333">2000mm x 1500mm</text>
<rect x="0" y="1400" width="250" height="180" fill="#d9f9d9" stroke="black" stroke-width="2"/>
<text x="10" y="1420" font-size="14" fill="black">Study Room</text>
<text x="10" y="1440" font-size="12" fill="#333">2500mm x 1800mm</text>
<rect x="250" y="1400" width="300" height="200" fill="#d9f9d9" stroke="black" stroke-width="2"/>
<text x="260" y="1420" font-size="14" fill="black">Bedroom 2</text>
<text x="260" y="1440" font-size="12" fill="#333">3000mm x 2000mm</text>
<rect x="550" y="1400" width="180" height="150" fill="#d9f9d9" stroke="black" stroke-width="2"/>
<text x="560" y="1420" font-size="14" fill="black">Walk-in Closet</text>
<text x="560" y="1440" font-size="12" fill="#333">1800mm x 1500mm</text>
<rect x="730" y="1400" width="200" height="150" fill="#d9f9d9" stroke="black" stroke-width="2"/>
<text x="740" y="1420" font-size="14" fill="black">Bathroom</text>
<text x="740" y="1440" font-size="12" fill="#333">2000mm x 1500mm</text>
<text x="10" y="1670" font-size="16" fill="black">Layout 3 (Dimensions in mm)</text>
<rect x="0" y="1700" width="300" height="200" fill="#d9f9d9" stroke="black" stroke-width="2"/>
<text x="10" y="1720" font-size="14" fill="black">Bedroom 1</text>
<text x="10" y="1740" font-size="12" fill="#333">3000mm x 2000mm</text>
<rect x="300" y="1700" width="300" height="200" fill="#d9f9d9" stroke="black" stroke-width="2"/>
<text x="310" y="1720" font-size="14" fill="black">Dining Room</text>
<text x="310" y="1740" font-size="12" fill="#333">3000mm x 2000mm</text>
<rect x="600" y="1700" width="280" height="200" fill="#d9f9d9" stroke="black" stroke-width="2"/>
<text x="610" y="1720" font-size="14" fill="black">Guest Room</text>
<text x="610" y="1740" font-size="12" fill="#333">2800mm x 2000mm</text>
<rect x="0" y="1900" width="250" height="180" fill="#d9f9d9" stroke="black" stroke-width="2"/>
<text x="10" y="1920" font-size="14" fill="black">Study Room</text>
<text x="10" y="1940" font-size="12" fill="#333">2500mm x 1800mm</text>
<rect x="250" y="1900" width="250" height="200" fill="#d9f9d9" stroke="black" stroke-width="2"/>
<text x="260" y="1920" font-size="14" fill="black">Kitchen</text>
<text x="260" y="1940" font-size="12" fill="#333">2500mm x 2000mm</text>
<rect x="500" y="1900" width="200" height="150" fill="#d9f9d9" stroke="black" stroke-width="2"/>
<text x="510" y="1920" font-size="14" fill="black">Storage</text>
<text x="510" y="1940" font-size="12" fill="#333">2000mm x 1500mm</text>
<rect x="0" y="2100" width="400" height="250" fill="#d9f9d9" stroke="black" stroke-width="2"/>
<text x="10" y="2120" font-size="14" fill="black">Living Room</text>
<text x="10" y="2140" font-size="12" fill="#333">4000mm x 2500mm</text>
<rect x="400" y="2100" width="180" height="150" fill="#d9f9d9" stroke="black" stroke-width="2"/>
<text x="410" y="2120" font-size="14" fill="black">Walk-in Closet</text>
<text x="410" y="2140" font-size="12" fill="#333">1800mm x 1500mm</text>
<rect x="580" y="2100" width="200" height="150" fill="#d9f9d9" stroke="black" stroke-width="2"/>
<text x="590" y="2120" font-size="14" fill="black">Bathroom</text>
<text x="590" y="2140" font-size="12" fill="#333">2000mm x 1500mm</text>
<rect x="780" y="2100" width="150" height="150" fill="#d9f9d9" stroke="black" stroke-width="2"/>
<text x="790" y="2120" font-size="14" fill="black">Toilet</text>
<text x="790" y="2140" font-size="12" fill="#333">1500mm x 1500mm</text>
<rect x="0" y="2350" width="300" height="200" fill="#d9f9d9" stroke="black" stroke-width="2"/>
<text x="10" y="2370" font-size="14" fill="black">Bedroom 2</text>
<text x="10" y="2390" font-size="12" fill="#333">3000mm x 2000mm</text>
</svg>